<?xml version="1.0" standalone="no"?><!DOCTYPE svg PUBLIC "-//W3C//DTD SVG 1.1//EN" "http://www.w3.org/Graphics/SVG/1.1/DTD/svg11.dtd"><svg t="1568016053618" class="icon" viewBox="0 0 1024 1024" version="1.1" xmlns="http://www.w3.org/2000/svg" p-id="900" xmlns:xlink="http://www.w3.org/1999/xlink" width="200" height="200"><defs><style type="text/css"></style></defs><path d="M245.27303111 759.85237333v-286.15452444c19.70289778 0 35.76945778-16.06883555 35.76945778-35.76945778v-35.76945778h-178.84842667v35.76945778c0 19.70176 16.06883555 35.76945778 35.76945778 35.76945778v286.15452444h107.30837333zM459.89091555 759.85237333v-286.15452444c19.70176 0 35.76945778-16.06883555 35.76945778-35.76945778v-35.76945778h-178.84842666v35.76945778c0 19.70176 16.06883555 35.76945778 35.76945778 35.76945778v286.15452444h107.30837333zM674.50766222 759.85237333v-286.15452444c19.70176 0 35.76832-16.06883555 35.76832-35.76945778v-35.76945778h-178.84728889v35.76945778c0 19.70176 16.06883555 35.76945778 35.76945778 35.76945778v286.15452444h107.30837334zM889.12440889 759.85237333v-286.15452444c19.70176 0 35.76832-16.06883555 35.76832-35.76945778v-35.76945778h-178.84615111v35.76945778c0 19.70176 16.06769778 35.76945778 35.76945777 35.76945778v286.15452444h107.30723556zM924.89159111 867.16188445h-35.76832c0-8.94293333 0-71.53891555 0-71.53891556h-751.15861333v71.53891556h-35.76945778c-19.70176 0-35.76945778 16.06769778-35.76945778 35.76832v35.76945777c0 19.70176 16.06883555 35.76945778 35.76945778 35.76945778h822.69639111c19.70176 0 35.76945778-16.06883555 35.76945778-35.76945778v-35.76945777c0-19.70176-16.06883555-35.76832-35.76945778-35.76832zM100.79800889 366.39061333h824.79217778c0.27989333 0 0.55864889 0 0.69973333 0 19.00202667 0 34.37226667-15.99829333 34.37226667-35.76945778 0-15.02094222-8.87239111-27.87669333-21.44711112-33.18556444l-408.69432888-248.1152c-10.68828445-6.49671111-23.96273778-6.49671111-34.65216 0l-412.39438222 250.38620444c-13.41326222 8.17379555-19.91111111 24.66247111-15.85948445 40.23978667 4.05276445 15.61486222 17.67537778 26.44309333 33.18556445 26.44309333zM513.54396445 164.31217778c42.5472 0 76.91946667 34.40867555 76.91946666 76.88305777 0 42.51079111-34.37226667 76.88305778-76.91946666 76.88305778-42.47438222 0-76.84778667-34.37226667-76.84778667-76.88305778 0-42.47438222 34.37226667-76.88305778 76.84778667-76.88305777z" p-id="901"></path></svg>