<?xml version="1.0" standalone="no"?><!DOCTYPE svg PUBLIC "-//W3C//DTD SVG 1.1//EN" "http://www.w3.org/Graphics/SVG/1.1/DTD/svg11.dtd"><svg t="1568017919387" class="icon" viewBox="0 0 1024 1024" version="1.1" xmlns="http://www.w3.org/2000/svg" p-id="1147" xmlns:xlink="http://www.w3.org/1999/xlink" width="200" height="200"><defs><style type="text/css"></style></defs><path d="M594.89758209 390.53166739c31.24161569 10.67702947 57.41646609 26.63881294 79.69403136 48.15783631 71.07611174 68.65466928 94.89285426 152.45513715 67.0403743 246.34347572-27.28246887 91.97209975-91.70697831 148.51513801-186.68526057 167.1517022-135.48000063 26.58431574-261.95323684-70.16291567-281.31152052-200.1239717C255.05608544 527.3387481 337.37923774 405.9514248 460.83745404 380.79876481c10.14089501-2.06647431 13.85995963-5.83561743 14.43733521-17.09444117 1.31971561-25.76096639-0.21357005-45.27243133-30.53315229-56.82583446-27.54317163-10.49439025-43.90558304-36.7001715-54.58555829-67.52348445 17.24320375 0 32.94281158-0.56559241 48.54373529 0.41977561 3.64541977 0.22977191 7.44991242 5.32157642 10.34710058 8.85947471 38.69594677 47.26820661 114.27912295 36.32163701 136.79677044-19.93271345 0.62008959-1.54948751 0.74675871-3.29634321 1.48173425-6.70904527H387.10276346c-7.42781895-18.67485952-4.22721403-36.16845572-0.11341307-52.99777547 10.17035294-41.60491811 35.29208208-71.5194537 74.84525485-88.20737532 10.68292106-4.50706445 16.00891617-9.08335503 17.77344662-21.91817844 9.27188585-67.44689383 20.22876572-134.66401575 30.58028497-201.962147 0.26512144-1.72034355 0.30047097-3.47603662 2.01786874-5.40995023 4.44814858 28.23690605 9.04505972 56.45319154 13.31204199 84.71808261 6.49252944 43.01300753 12.79063649 86.05694588 19.08727063 129.09941135 1.07521472 7.34533674 5.33630539 10.78160515 12.17938428 13.37390365 31.88527161 12.07333571 55.44425717 33.64538338 70.49873616 64.28311136 2.47004806 5.02699703 4.07255985 10.4811342 6.57648456 17.05320004-16.34473665 0-31.2813839 0.62450828-46.10314517-0.40651954-4.08728883-0.2842691-8.57962431-4.88265315-11.61231898-8.55311216-20.46442923-24.75497782-46.06337695-36.4173753-78.19462236-30.72315599-29.7274777 5.26855213-50.05050881 22.45431291-60.9543644 50.65292364-0.44481486 1.15033247-0.4271401 2.47888544-0.92645213 5.61910158h14.44028098c58.30020422 0 116.60335423 0.25333827 174.89913978-0.22682612 10.78896962-0.08837381 13.89236336 2.85005546 14.51245294 13.92329419 3.41712077 61.06188586-34.43338321 109.81624542-81.53809827 128.5102526-3.93263466 1.55979779-8.59582618 7.73860021-8.60760935 11.78464793-0.43450459 141.77516188-0.35349524 283.55032374-0.30930834 425.32695852 0 1.72034355 0.46543542 3.44068711 0.87342783 6.26717621 42.0836096-11.63293954 73.64484389-36.16698283 94.18439087-73.79949804 36.22884451-66.37609779 19.33766311-145.41321717-40.41776324-191.92582767-7.0316097-5.47328479-9.55762785-11.23525739-9.40002786-19.97395457 0.51109522-28.12938458 0.19147659-56.274971 0.1914766-85.96857207z m-120.93072527 79.7691491c-61.21359425 13.01598971-115.04502934 72.64180111-113.87702212 147.01572898 1.10025397 70.13787643 56.6564513 138.71153637 113.87702212 143.32464939V470.30081649z" p-id="1148"></path><path d="M651.25945401 823.26729722l344.03041536 344.049563c-3.41417495 0.3299289-7.05812183 0.98242222-10.7035416 0.98831382-37.9771731 0.07511774-75.96465648 0.48458307-113.92415482-0.35349525-6.94912747-0.15318128-15.44037797-3.81185712-20.41876941-8.70334765-61.73205394-60.65536634-122.97510612-121.8100447-184.21815833-182.96325019-3.72053753-3.71464591-6.3688061-8.50303367-8.43528042-11.3192125l-73.31933369 73.17793559 130.52664843 130.2099756H677.24430074c-30.46981772 0-60.95436439 0.46838121-91.40061576-0.37264291-6.62067147-0.18263922-14.54780246-3.50991326-19.40983507-8.03612537-18.38617173-17.11211591-35.7589904-35.31417554-55.07014136-54.67245921-18.09748393 18.34640351-35.88124085 35.86209317-53.00513994 54.00081824-6.26717622 6.63834624-12.7876907 9.35584097-21.93143452 9.26304845-41.45320974-0.41977562-82.91378396-0.18411211-125.48344951-0.18411211l129.5015122-128.51908998-73.25010754-73.29282154c-1.86174164 1.77925942-5.68243615 5.28769979-9.34994939 8.95226723-61.21801295 61.18708211-122.5126165 122.29757357-183.47729118 183.73357523-6.4233033 6.47338177-12.76559724 9.41033814-21.91081395 9.30576248-37.53088534-0.43155878-75.07060807-0.15759996-112.60591211-0.21062425-4.19039163-0.00589158-8.37931035-0.44334196-11.1380462-0.59946902l341.18330571-344.94655724 140.57180512 141.34802181 140.79126677-140.85607423z" p-id="1149"></path></svg>